<?xml version="1.0" encoding="UTF-8" standalone="no"?>
<!DOCTYPE svg PUBLIC "-//W3C//DTD SVG 1.1//EN" "http://www.w3.org/Graphics/SVG/1.1/DTD/svg11.dtd">
<svg width="100%" height="100%" viewBox="0 0 82557 40624" version="1.1" xmlns="http://www.w3.org/2000/svg" xmlns:xlink="http://www.w3.org/1999/xlink" xml:space="preserve" xmlns:serif="http://www.serif.com/" style="fill-rule:evenodd;clip-rule:evenodd;stroke-linejoin:round;stroke-miterlimit:2;">
    <g transform="matrix(1,0,0,1,6216.18,2117.59)">
        <rect id="画板1" x="-6216.18" y="-2117.59" width="82556" height="40623.2" style="fill:none;"/>
        <g id="画板11" serif:id="画板1">
            <g transform="matrix(1,0,0,1,-2334.17,-3274.62)">
                <path d="M11722.6,34355.9c-341.187,0 -681.925,-55.394 -1005.13,-164.848c-454.937,-154.066 -871.857,-414.329 -1211.42,-753.891c-339.562,-339.563 -599.825,-756.483 -753.891,-1211.42c-109.458,-323.217 -164.822,-663.935 -164.848,-1005.13c-0.34,-4476.98 -0.887,-8953.95 -0,-13430.9c0.164,-831.572 124.601,-1662.17 371.789,-2456.29c278.128,-893.515 710.363,-1737.53 1270.85,-2486.8c634.66,-848.435 1432.04,-1573.3 2337.47,-2123.68c688.826,-418.709 1438.83,-735.713 2219.51,-936.741c673.598,-173.455 1368.74,-260.306 2064.25,-260.357c12093.4,-0.896 24186.9,-0.896 36280.3,-0c899.309,0.066 1797.36,145.997 2649.28,434.501c1073.4,363.51 2067.47,951.228 2905.95,1713.37c934.674,849.584 1671.35,1911.95 2135.05,3087.1c379.816,962.563 573.267,1994.34 573.595,3028.89c0.878,2767.45 0.878,5534.9 0,8302.35c-0.264,831.605 -124.588,1662.13 -371.789,2456.29c-337.283,1083.56 -901.452,2092.98 -1644.41,2950.56c-389.777,449.914 -827.913,857.822 -1304.58,1214.39c-587.011,439.106 -1232.26,799.956 -1914.2,1069.04c-962.434,379.765 -1994.44,573.528 -3028.89,573.595c-13803,0.896 -27605.9,0.448 -41408.9,0Z" style="fill:rgb(235,235,235);"/>
            </g>
        </g>
    </g>
</svg>
